<svg id="Capa_1" enable-background="new 0 0 512.056 512.056" height="512" viewBox="0 0 512.056 512.056" width="512" xmlns="http://www.w3.org/2000/svg"><g><path d="m504.528 169.257h-497.028l44.283-107.009h408.462z" fill="#685e68"/><path d="m460.245 62.248h-27.472l44.283 107.009h27.472z" fill="#554e56"/><path d="m40.356 169.257h431.344v280.55h-431.344z" fill="#fe646f"/><path d="m40.356 169.257v16.514h386.592c12.86 0 23.284 10.425 23.284 23.284v240.752h21.468v-280.55z" fill="#fd4755"/><path d="m411.112 449.808h-75.963v-118.225c0-3.56 2.886-6.445 6.445-6.445h63.073c3.56 0 6.445 2.886 6.445 6.445z" fill="#685e68"/><path d="m404.667 325.138h-18.495c3.56 0 6.445 2.886 6.445 6.445v118.225h18.495v-118.225c.001-3.56-2.885-6.445-6.445-6.445z" fill="#554e56"/><path d="m259.002 372.523h-111.633c-4.013 0-7.266-3.253-7.266-7.266v-58.459c0-4.013 3.253-7.266 7.266-7.266h111.633c4.013 0 7.266 3.253 7.266 7.266v58.459c0 4.013-3.253 7.266-7.266 7.266z" fill="#f9f7f8"/><path d="m259.002 299.533h-20.477c4.013 0 7.266 3.253 7.266 7.266v58.459c0 4.013-3.253 7.266-7.266 7.266h20.477c4.013 0 7.266-3.253 7.266-7.266v-58.459c0-4.013-3.253-7.266-7.266-7.266z" fill="#dedbee"/><path d="m149.338 108.663-59.23 82.318h118.459z" fill="#fe646f"/><path d="m362.718 108.663-59.23 82.318h118.459z" fill="#fe646f"/><g><path d="m166.317 224.265h-33.958c-3.093 0-5.601-2.508-5.601-5.601v-33.958c0-3.093 2.507-5.601 5.601-5.601h33.958c3.093 0 5.601 2.508 5.601 5.601v33.958c0 3.094-2.508 5.601-5.601 5.601z" fill="#f9f7f8"/><path d="m166.317 179.106h-16.514c3.093 0 5.601 2.507 5.601 5.601v33.958c0 3.093-2.508 5.601-5.601 5.601h16.514c3.093 0 5.601-2.507 5.601-5.601v-33.958c-.001-3.094-2.508-5.601-5.601-5.601z" fill="#dedbee"/></g><g><path d="m379.697 224.265h-33.958c-3.093 0-5.601-2.508-5.601-5.601v-33.958c0-3.093 2.508-5.601 5.601-5.601h33.958c3.093 0 5.601 2.508 5.601 5.601v33.958c-.001 3.094-2.508 5.601-5.601 5.601z" fill="#f9f7f8"/><path d="m379.697 179.106h-16.514c3.093 0 5.601 2.507 5.601 5.601v33.958c0 3.093-2.508 5.601-5.601 5.601h16.514c3.093 0 5.601-2.507 5.601-5.601v-33.958c-.001-3.094-2.508-5.601-5.601-5.601z" fill="#dedbee"/></g><g><path d="m147.369 292.032c-8.142 0-14.766 6.624-14.766 14.767v58.459c0 8.142 6.624 14.766 14.766 14.766h111.633c8.143 0 14.767-6.624 14.767-14.766v-58.459c0-8.143-6.624-14.767-14.767-14.767zm.235 15h48.082v57.991h-48.082zm111.165 57.991h-48.083v-57.991h48.083z"/><path d="m504.556 442.308h-25.356v-265.55h25.327c2.505 0 4.844-1.25 6.235-3.332s1.652-4.722.694-7.036l-44.281-107.01c-1.16-2.804-3.896-4.632-6.93-4.632h-78.381c-4.143 0-7.5 3.357-7.5 7.5s3.357 7.5 7.5 7.5h73.368l38.074 92.01h-83.146l-41.355-57.476c-1.409-1.958-3.675-3.119-6.088-3.119s-4.679 1.161-6.088 3.119l-41.355 57.476h-118.493l-41.355-57.476c-1.409-1.958-3.675-3.119-6.088-3.119s-4.679 1.161-6.088 3.119l-23.769 33.035h-31.561c-4.143 0-7.5 3.357-7.5 7.5s3.357 7.5 7.5 7.5h20.768l-6.793 9.44h-83.174l38.074-92.01h296.069c4.143 0 7.5-3.357 7.5-7.5s-3.357-7.5-7.5-7.5h-301.082c-3.034 0-5.77 1.828-6.93 4.632l-44.282 107.011c-.958 2.314-.697 4.954.694 7.036s3.73 3.332 6.235 3.332h25.355v171.266c0 4.143 3.357 7.5 7.5 7.5s7.5-3.357 7.5-7.5v-79.89h50.192c4.143 0 7.5-3.357 7.5-7.5s-3.357-7.5-7.5-7.5h-50.191v-76.376h43.247l-7.082 9.843c-2.419 3.361-1.654 8.049 1.707 10.468 3.362 2.42 8.049 1.654 10.469-1.707l53.142-73.856 53.142 73.856c2.428 3.372 7.115 4.12 10.469 1.707 3.361-2.419 4.126-7.106 1.707-10.468l-7.082-9.843h96.909l-7.082 9.843c-2.419 3.361-1.654 8.049 1.707 10.468 3.362 2.42 8.048 1.654 10.469-1.707l53.142-73.856 53.142 73.856c2.428 3.372 7.115 4.12 10.469 1.707 3.361-2.419 4.126-7.106 1.707-10.468l-7.082-9.843h43.245v86.504h-65.558c-4.143 0-7.5 3.357-7.5 7.5s3.357 7.5 7.5 7.5h65.558v59.376h-24.867c-4.143 0-7.5 3.357-7.5 7.5s3.357 7.5 7.5 7.5h24.867v89.67h-45.588v-27.138c0-4.143-3.357-7.5-7.5-7.5s-7.5 3.357-7.5 7.5v27.138h-60.963v-109.67h60.963v53.532c0 4.143 3.357 7.5 7.5 7.5s7.5-3.357 7.5-7.5v-54.587c0-7.689-6.256-13.945-13.945-13.945h-63.072c-7.689 0-13.945 6.256-13.945 13.945v110.725h-279.795v-25.771h71.771c4.143 0 7.5-3.357 7.5-7.5s-3.357-7.5-7.5-7.5h-71.771v-24.514c0-4.143-3.357-7.5-7.5-7.5s-7.5 3.357-7.5 7.5v65.284h-25.355c-4.143 0-7.5 3.357-7.5 7.5s3.357 7.5 7.5 7.5h497.056c4.143 0 7.5-3.357 7.5-7.5s-3.358-7.499-7.5-7.499z"/><path d="m166.316 171.605h-33.958c-7.224 0-13.101 5.877-13.101 13.101v33.958c0 7.224 5.877 13.101 13.101 13.101h33.958c7.225 0 13.102-5.877 13.102-13.101v-33.958c0-7.224-5.877-13.101-13.102-13.101zm-1.898 45.16h-30.16v-30.159h30.16z"/><path d="m392.798 218.664v-33.958c0-7.224-5.877-13.101-13.102-13.101h-33.958c-7.224 0-13.101 5.877-13.101 13.101v33.958c0 7.224 5.877 13.101 13.101 13.101h33.958c7.225 0 13.102-5.877 13.102-13.101zm-15-1.899h-30.16v-30.159h30.16z"/><path d="m72.507 87.556c-4.143 0-7.5 3.357-7.5 7.5s3.357 7.5 7.5 7.5h17.602c4.143 0 7.5-3.357 7.5-7.5s-3.357-7.5-7.5-7.5z"/><path d="m260.998 99.459c0-4.143-3.357-7.5-7.5-7.5h-60.33c-4.143 0-7.5 3.357-7.5 7.5s3.357 7.5 7.5 7.5h60.33c4.143 0 7.5-3.357 7.5-7.5z"/><path d="m242.929 139.106h63.854c4.143 0 7.5-3.357 7.5-7.5s-3.357-7.5-7.5-7.5h-63.854c-4.143 0-7.5 3.357-7.5 7.5s3.357 7.5 7.5 7.5z"/><path d="m427.442 99.473c4.143 0 7.5-3.357 7.5-7.5s-3.357-7.5-7.5-7.5h-25.981c-4.143 0-7.5 3.357-7.5 7.5s3.357 7.5 7.5 7.5z"/><path d="m113.021 283.115h-20.698c-4.143 0-7.5 3.357-7.5 7.5s3.357 7.5 7.5 7.5h20.697c4.143 0 7.5-3.357 7.5-7.5s-3.357-7.5-7.499-7.5z"/><path d="m55.319 328.101c0 4.143 3.357 7.5 7.5 7.5h29.504c4.143 0 7.5-3.357 7.5-7.5s-3.357-7.5-7.5-7.5h-29.504c-4.142 0-7.5 3.357-7.5 7.5z"/><path d="m142.525 401.537c-4.143 0-7.5 3.357-7.5 7.5s3.357 7.5 7.5 7.5h18.335c4.143 0 7.5-3.357 7.5-7.5s-3.357-7.5-7.5-7.5z"/><path d="m286.966 253.134c-4.143 0-7.5 3.357-7.5 7.5s3.357 7.5 7.5 7.5h42.716c4.143 0 7.5-3.357 7.5-7.5s-3.357-7.5-7.5-7.5z"/><path d="m253.498 252.28c4.143 0 7.5-3.357 7.5-7.5s-3.357-7.5-7.5-7.5h-40.954c-4.143 0-7.5 3.357-7.5 7.5s3.357 7.5 7.5 7.5z"/><path d="m252.604 400.67c0 4.143 3.357 7.5 7.5 7.5h40.073c4.143 0 7.5-3.357 7.5-7.5s-3.357-7.5-7.5-7.5h-40.073c-4.143 0-7.5 3.357-7.5 7.5z"/><path d="m340.138 290.124c-4.143 0-7.5 3.357-7.5 7.5s3.357 7.5 7.5 7.5h14.532c4.143 0 7.5-3.357 7.5-7.5s-3.357-7.5-7.5-7.5z"/><path d="m374.797 384.927v5.285c0 4.143 3.357 7.5 7.5 7.5s7.5-3.357 7.5-7.5v-5.285c0-4.143-3.357-7.5-7.5-7.5s-7.5 3.357-7.5 7.5z"/></g></g></svg>